<svg xmlns="http://www.w3.org/2000/svg" width="1198" height="256" viewBox="0 0 1198 256">
    <path d="M128 16C66.144 16 16 66.144 16 128a112 112 0 003.705 28.282c.064.057.13.118.19.168 2.063 1.705 4.47 2.58 6.9 2.58 3.715 0 7.297-2.047 10.1-5.75l35.3-46.65c5.841-7.72 14.15-12.15 22.75-12.15s16.87 4.447 22.75 12.15c5.214 6.829 22.537 29.832 33.9 44.85.466.616.973 1.2 1.46 1.8 3.08 3.797 6.35 5.75 10 5.75 3.795 0 6.752-1.828 10-5.75.496-.6 1.018-1.18 1.49-1.8 11.46-15.08 28.677-37.968 33.9-44.85 5.852-7.712 14.15-12.15 22.75-12.15 1.218 0 2.439.15 3.644.31-14.535-46.813-57.822-78.736-106.84-78.79zm37.525 47.525a11.763 11.763 0 0111.763 11.764 11.763 11.763 0 01-11.763 11.762 11.763 11.763 0 01-11.763-11.762 11.763 11.763 0 0111.763-11.764z" fill="#6dabe4"></path>
    <path d="M239.006 114.199c-2.334-2.2-5.045-3.269-8.08-3.269-4.557 0-7.513 2.395-10.476 5.82l-35.2 46.65c-5.849 7.751-14.1 12.15-22.7 12.15h-.134c-8.6 0-16.881-4.439-22.7-12.15l-35.2-46.65c-2.797-3.708-6.35-5.75-10.05-5.75-3.68 0-7.276 2.073-10.05 5.75l-35.2 46.65c-5.78 7.66-13.942 12.164-22.488 12.15C45.15 214.836 84.608 239.947 128 240c61.856 0 112-50.145 112-112a111.995 111.995 0 00-.994-13.801z" fill="#709c49"></path>
</svg>